<?xml version="1.0" encoding="UTF-8"?>
<svg xmlns="http://www.w3.org/2000/svg" xmlns:xlink="http://www.w3.org/1999/xlink" width="400px" height="400px" viewBox="0 0 400 400" version="1.1">
<g id="surface1">
<path style=" stroke:none;fill-rule:nonzero;fill:rgb(72.1569%,52.1569%,4.31373%);fill-opacity:1;" d="M 200 12.5 C 95.800781 12.5 12.5 95.800781 12.5 200 C 12.5 304.199219 95.800781 387.5 200 387.5 C 304.199219 387.5 387.5 304.199219 387.5 200 C 387.5 95.800781 304.199219 12.5 200 12.5 Z M 200 50 C 284.132812 50 350 115.867188 350 200 C 350 284.132812 284.132812 350 200 350 C 115.867188 350 50 284.132812 50 200 C 50 115.867188 115.867188 50 200 50 Z M 200 50 "/>
<path style=" stroke:none;fill-rule:nonzero;fill:rgb(11.7647%,33.7255%,19.2157%);fill-opacity:1;" d="M 200 87.5 C 137.109375 87.5 87.5 137.109375 87.5 200 C 87.5 262.890625 137.109375 312.5 200 312.5 C 262.890625 312.5 312.5 262.890625 312.5 200 C 312.5 137.109375 262.890625 87.5 200 87.5 Z M 162.5 125 C 175.789062 125 186.105469 137.394531 197.019531 151.777344 C 204.285156 161.902344 211.714844 172.378906 220.378906 180.027344 C 226.25 185.214844 232.640625 190.996094 236.25 197.808594 C 239.863281 204.621094 241.019531 212.941406 237.328125 219.40625 C 233.632812 225.867188 225.546875 229.964844 217.664062 232.746094 C 206.710938 236.636719 194.496094 237.5 183.28125 237.5 C 176.675781 237.5 170.078125 237.179688 164.675781 236.488281 C 159.273438 235.796875 154.460938 234.839844 150.8125 233.472656 C 147.164062 232.105469 144.425781 230.144531 144.09375 228.164062 C 143.761719 226.1875 145.921875 223.96875 148.238281 221.007812 C 150.554688 218.046875 153.183594 214.269531 153.085938 208.441406 C 152.988281 202.613281 150.1875 194.273438 147.386719 185.933594 C 144.585938 177.59375 141.644531 168.75 139.375 159.351562 C 137.109375 149.953125 134.964844 140.144531 137.460938 132.988281 C 139.957031 125.835938 147.675781 121.148438 155.523438 121.898438 C 163.371094 122.648438 171.742188 129.371094 171.742188 129.371094 C 171.742188 129.371094 167.523438 125 162.5 125 Z M 162.5 125 "/>
</g>
</svg>