<?xml version="1.0" encoding="UTF-8"?>
<svg xmlns="http://www.w3.org/2000/svg" xmlns:xlink="http://www.w3.org/1999/xlink" width="32px" height="32px" viewBox="0 0 32 32" version="1.1">
<g id="surface1">
<path style=" stroke:none;fill-rule:nonzero;fill:rgb(72.1569%,52.1569%,4.31373%);fill-opacity:1;" d="M 16 1 C 7.714844 1 1 7.714844 1 16 C 1 24.285156 7.714844 31 16 31 C 24.285156 31 31 24.285156 31 16 C 31 7.714844 24.285156 1 16 1 Z M 16 4 C 22.617188 4 28 9.382812 28 16 C 28 22.617188 22.617188 28 16 28 C 9.382812 28 4 22.617188 4 16 C 4 9.382812 9.382812 4 16 4 Z M 16 4 "/>
<path style=" stroke:none;fill-rule:nonzero;fill:rgb(11.7647%,33.7255%,19.2157%);fill-opacity:1;" d="M 16 7 C 10.476562 7 6 11.476562 6 17 C 6 22.523438 10.476562 27 16 27 C 21.523438 27 26 22.523438 26 17 C 26 11.476562 21.523438 7 16 7 Z M 13 10 C 14.0625 10 14.890625 10.992188 15.761719 12.144531 C 16.34375 12.953125 16.929688 13.792969 17.632812 14.402344 C 18.101562 14.816406 18.613281 15.28125 18.902344 15.824219 C 19.191406 16.371094 19.28125 17.035156 19 17.550781 C 18.714844 18.070312 18.046875 18.398438 17.414062 18.621094 C 16.539062 18.933594 15.558594 19 14.664062 19 C 14.136719 19 13.605469 18.972656 13.175781 18.921875 C 12.742188 18.867188 12.367188 18.789062 12.066406 18.679688 C 11.773438 18.5625 11.554688 18.414062 11.527344 18.253906 C 11.5 18.097656 11.675781 17.910156 11.859375 17.679688 C 12.042969 17.449219 12.25 17.140625 12.242188 16.675781 C 12.234375 16.214844 12.015625 15.542969 11.792969 14.875 C 11.566406 14.207031 11.332031 13.5 11.152344 12.75 C 10.972656 12 10.796875 11.214844 10.996094 10.640625 C 11.199219 10.066406 11.8125 9.691406 12.441406 9.757812 C 13.070312 9.816406 13.738281 10.347656 13.738281 10.347656 C 13.738281 10.347656 13.4375 10 13 10 Z M 13 10 "/>
</g>
</svg>