<?xml version="1.0" encoding="UTF-8"?>
<svg xmlns="http://www.w3.org/2000/svg" xmlns:xlink="http://www.w3.org/1999/xlink" width="240px" height="60px" viewBox="0 0 240 60" version="1.1">
<g id="surface1">
<path style=" stroke:none;fill-rule:nonzero;fill:rgb(72.1569%,52.1569%,4.31373%);fill-opacity:1;" d="M 55 5 C 41.746094 5 31 15.746094 31 29 C 31 42.253906 41.746094 53 55 53 C 68.253906 53 79 42.253906 79 29 C 79 15.746094 68.253906 5 55 5 Z M 55 13 C 63.835938 13 71 20.164062 71 29 C 71 37.835938 63.835938 45 55 45 C 46.164062 45 39 37.835938 39 29 C 39 20.164062 46.164062 13 55 13 Z M 55 13 "/>
<path style=" stroke:none;fill-rule:nonzero;fill:rgb(11.7647%,33.7255%,19.2157%);fill-opacity:1;" d="M 55 18 C 48.371094 18 43 23.371094 43 30 C 43 36.628906 48.371094 42 55 42 C 61.628906 42 67 36.628906 67 30 C 67 23.371094 61.628906 18 55 18 Z M 49.5 22.5 C 51.292969 22.5 52.625 24.121094 53.953125 26.222656 C 54.878906 27.671875 55.839844 29.191406 57.015625 30.253906 C 57.75 30.914062 58.546875 31.65625 59.0625 32.542969 C 59.578125 33.425781 59.726562 34.523438 59.253906 35.371094 C 58.777344 36.214844 57.765625 36.742188 56.765625 37.097656 C 55.386719 37.601562 53.886719 37.710938 52.5 37.710938 C 51.007812 37.710938 49.515625 37.668969 48.265625 37.578125 C 47.015625 37.488281 45.992188 37.351562 45.078125 37.175781 C 44.160156 36.996094 43.671875 36.714844 43.628906 36.453125 C 43.585938 36.191406 43.902344 35.890625 44.246094 35.460938 C 44.589844 35.027344 44.933594 34.519531 44.917969 33.769531 C 44.902344 33.019531 44.539062 32.003906 44.171875 30.988281 C 43.804688 29.96875 43.414062 28.902344 43.097656 27.777344 C 42.777344 26.648438 42.488281 25.515625 42.828125 24.601562 C 43.167969 23.6875 44.132812 22.964844 45.109375 23.066406 C 46.085938 23.167969 47.167969 23.976562 47.167969 23.976562 C 47.167969 23.976562 46.625 22.5 49.5 22.5 Z M 49.5 22.5 "/>
<path style="fill:none;stroke-width:4;stroke-linecap:butt;stroke-linejoin:miter;stroke:rgb(72.1569%,52.1569%,4.31373%);stroke-opacity:1;stroke-miterlimit:4;" d="M 110 25 L 110 35 L 124 35 L 95 35 L 95 25 L 110 25 Z M 110 25 "/>
<path style=" stroke:none;fill-rule:nonzero;fill:rgb(72.1569%,52.1569%,4.31373%);fill-opacity:1;" d="M 91 10 L 91 50 L 230 50 L 230 10 Z M 95 14 L 226 14 L 226 46 L 95 46 Z M 95 14 "/>
<path style=" stroke:none;fill-rule:nonzero;fill:rgb(11.7647%,33.7255%,19.2157%);fill-opacity:1;" d="M 99.539062 23.445312 L 104.148438 23.445312 C 107.984375 23.445312 109.453125 25.601562 109.453125 29.035156 L 109.453125 29.132812 C 109.453125 32.710938 107.738281 34.816406 104.097656 34.816406 L 99.539062 34.816406 Z M 104.097656 32.914062 C 106.300781 32.914062 107.085938 31.5625 107.085938 29.132812 L 107.085938 29.035156 C 107.085938 26.65625 106.351562 25.347656 104.097656 25.347656 L 101.804688 25.347656 L 101.804688 32.914062 Z M 111.285156 23.445312 L 116.992188 23.445312 C 119.589844 23.445312 121.304688 24.65625 121.304688 27.042969 L 121.304688 27.140625 C 121.304688 29.183594 120.128906 30.25 118.363281 30.59375 L 121.5 34.816406 L 118.855469 34.816406 L 115.917969 30.886719 L 113.550781 30.886719 L 113.550781 34.816406 L 111.285156 34.816406 Z M 116.796875 29.035156 C 118.460938 29.035156 119.046875 28.300781 119.046875 27.140625 L 119.046875 27.042969 C 119.046875 25.734375 118.414062 25.296875 116.746094 25.296875 L 113.550781 25.296875 L 113.550781 29.035156 Z M 123.136719 34.816406 L 123.136719 23.445312 L 125.402344 23.445312 L 125.402344 34.816406 Z M 135.742188 32.914062 L 135.742188 34.816406 L 127.03125 34.816406 L 127.03125 23.445312 L 135.546875 23.445312 L 135.546875 25.347656 L 129.296875 25.347656 L 129.296875 28.105469 L 134.761719 28.105469 L 134.761719 29.957031 L 129.296875 29.957031 L 129.296875 32.914062 Z M 137.574219 23.445312 L 139.839844 23.445312 L 139.839844 32.914062 L 146.285156 32.914062 L 146.285156 34.816406 L 137.574219 34.816406 Z M 156.726562 34.816406 L 156.5 34.132812 C 155.566406 34.769531 154.386719 35.058594 153.109375 35.058594 C 150.316406 35.058594 149.382812 33.503906 149.382812 31.804688 L 149.382812 31.707031 C 149.382812 29.664062 150.953125 28.496094 154.335938 28.496094 L 156.210938 28.496094 L 156.210938 27.582031 C 156.210938 26.222656 155.519531 25.296875 153.855469 25.296875 C 152.582031 25.296875 151.453125 25.636719 150.464844 26.171875 L 149.675781 24.507812 C 150.808594 23.875 152.191406 23.449219 153.953125 23.449219 C 156.824219 23.449219 158.425781 24.753906 158.425781 27.582031 L 158.425781 34.816406 Z M 156.210938 30.152344 L 154.484375 30.152344 C 152.582031 30.152344 151.648438 30.75 151.648438 31.804688 L 151.648438 31.902344 C 151.648438 32.71875 152.238281 33.304688 153.558594 33.304688 C 154.832031 33.304688 155.714844 32.867188 156.210938 32.230469 Z M 166.421875 35.058594 C 163.5 35.058594 160.921875 33.210938 160.921875 29.132812 L 160.921875 29.035156 C 160.921875 24.957031 163.5 23.109375 166.421875 23.109375 C 168.179688 23.109375 169.398438 23.546875 170.53125 24.460938 L 169.449219 26.027344 C 168.664062 25.441406 167.878906 25.101562 166.472656 25.101562 C 164.90625 25.101562 163.238281 26.074219 163.238281 29.035156 L 163.238281 29.132812 C 163.238281 32.09375 164.855469 33.058594 166.472656 33.058594 C 167.878906 33.058594 168.664062 32.671875 169.5 32.039062 L 170.484375 33.503906 C 169.449219 34.421875 168.179688 35.058594 166.421875 35.058594 Z M 169.695312 36.429688 L 174.367188 22.789062 L 176.175781 22.789062 L 171.507812 36.429688 Z M 180.050781 35.058594 C 177.132812 35.058594 174.558594 33.210938 174.558594 29.132812 L 174.558594 29.035156 C 174.558594 24.957031 177.132812 23.109375 180.050781 23.109375 C 181.816406 23.109375 183.03125 23.546875 184.164062 24.460938 L 183.085938 26.027344 C 182.296875 25.441406 181.511719 25.101562 180.105469 25.101562 C 178.539062 25.101562 176.875 26.074219 176.875 29.035156 L 176.875 29.132812 C 176.875 32.09375 178.492188 33.058594 180.105469 33.058594 C 181.511719 33.058594 182.296875 32.671875 183.132812 32.039062 L 184.117188 33.503906 C 183.085938 34.421875 181.816406 35.058594 180.050781 35.058594 Z M 186.144531 23.445312 L 191.851562 23.445312 C 194.445312 23.445312 196.160156 24.65625 196.160156 27.042969 L 196.160156 27.140625 C 196.160156 29.183594 194.988281 30.25 193.222656 30.59375 L 196.359375 34.816406 L 193.710938 34.816406 L 190.777344 30.886719 L 188.410156 30.886719 L 188.410156 34.816406 L 186.144531 34.816406 Z M 191.65625 29.035156 C 193.320312 29.035156 193.902344 28.300781 193.902344 27.140625 L 193.902344 27.042969 C 193.902344 25.734375 193.269531 25.296875 191.605469 25.296875 L 188.410156 25.296875 L 188.410156 29.035156 Z M 198.035156 23.445312 L 206.796875 23.445312 L 206.796875 25.347656 L 200.300781 25.347656 L 200.300781 28.105469 L 205.765625 28.105469 L 205.765625 30.007812 L 200.300781 30.007812 L 200.300781 32.914062 L 206.992188 32.914062 L 206.992188 34.816406 L 198.035156 34.816406 Z M 212.164062 23.445312 L 214.429688 23.445312 L 214.429688 32.914062 L 220.875 32.914062 L 220.875 34.816406 L 212.164062 34.816406 Z M 212.164062 23.445312 "/>
</g>
</svg>